<?xml version="1.0" standalone="no"?>
<!DOCTYPE svg PUBLIC "-//W3C//DTD SVG 20010904//EN"
 "http://www.w3.org/TR/2001/REC-SVG-20010904/DTD/svg10.dtd">
<svg version="1.0" xmlns="http://www.w3.org/2000/svg"
 width="500.000000pt" height="500.000000pt" viewBox="0 0 500.000000 500.000000"
 preserveAspectRatio="xMidYMid meet">

<g transform="translate(0.000000,500.000000) scale(0.100000,-0.100000)"
fill="#000000" stroke="none">
<path d="M2210 3974 c-19 -2 -84 -9 -145 -15 -136 -13 -276 -41 -377 -75 -58
-19 -85 -34 -109 -61 -31 -36 -60 -93 -73 -145 -5 -22 -23 -36 -94 -71 -106
-52 -125 -78 -141 -182 -22 -151 -11 -590 24 -954 11 -119 12 -219 3 -563 -12
-467 -12 -471 50 -540 30 -34 90 -68 327 -184 160 -79 319 -152 355 -161 57
-16 115 -18 480 -18 364 0 423 2 480 18 36 9 195 81 354 160 242 119 294 149
326 184 63 72 64 84 52 536 -10 418 -3 1042 18 1407 12 215 7 263 -35 337 -90
152 -355 254 -805 308 -127 15 -608 29 -690 19z m888 -519 c147 -35 258 -129
366 -309 l34 -56 6 -188 c3 -103 8 -261 12 -352 3 -90 3 -162 0 -159 -3 3 -24
95 -46 204 l-42 200 -42 43 c-37 37 -50 44 -116 56 l-74 14 -343 -90 -343 -91
-343 91 -342 90 -75 -14 c-66 -13 -80 -19 -117 -57 l-42 -42 -41 -199 c-22
-110 -42 -202 -45 -204 -5 -5 4 386 14 588 7 142 8 146 47 224 70 142 151 206
261 206 61 0 70 -6 114 -81 22 -38 56 -85 77 -105 39 -39 154 -99 210 -110
l32 -6 0 59 c0 135 52 207 179 247 80 25 210 52 291 60 85 8 305 -3 368 -19z
m-1024 -936 l295 -171 -29 -59 c-17 -32 -34 -59 -38 -59 -20 -1 -588 124 -596
131 -10 9 57 329 68 329 3 0 137 -77 300 -171z m1180 154 c22 -76 66 -306 60
-312 -5 -4 -99 -27 -209 -50 -110 -24 -237 -51 -283 -62 -46 -10 -90 -19 -98
-19 -7 0 -27 27 -44 59 l-29 59 292 170 c161 94 295 171 299 171 4 1 9 -7 12
-16z m-1700 -605 c28 -49 56 -82 87 -105 l46 -33 288 25 c265 23 291 27 312
47 l24 22 99 -99 100 -100 100 100 99 99 24 -22 c21 -20 47 -24 312 -46 l289
-25 46 32 c32 23 58 56 90 111 43 76 44 78 51 50 8 -34 19 -603 12 -622 -9
-23 -521 -272 -602 -293 -66 -17 -113 -19 -419 -19 -285 0 -356 3 -412 16 -44
11 -166 65 -342 153 l-273 136 3 280 c3 275 9 382 20 371 3 -3 24 -38 46 -78z"/>
</g>
</svg>
